# xmcd
#
# Track frame offsets: 
#        150
#        18767
#        34293
#        49067
#        66132
#        83086
#        98412
#        111840
#        129743
#        145008
#        162302
#        171519
#        187161
#
# Disc length: 2691 seconds
#
# Revision: 0
# Processed by: cddbd v1.5.2PL0 Copyright (c) Steve Scherf et al.
# Submitted via: ExactAudioCopyFreeDBPlugin 1.0
#
DISCID=ae0a810d
DTITLE=The Market Barkers - The Market Barkers
DYEAR=2014
DGENRE=Bluegrass
TTITLE0=Wagon Wheel
TTITLE1=Market Barkers
TTITLE2=Man Of Constant Sorrow
TTITLE3=The Boy Who Wouldn't Hoe Corn
TTITLE4=Hey You!
TTITLE5=Wild Water Lemon
TTITLE6=Lucky One
TTITLE7=Danny Boy
TTITLE8=All I Want
TTITLE9=Sixteen Tons
TTITLE10=Salty Dog Blues
TTITLE11=Tennessee Waltz
TTITLE12=Flowers on the Wall
EXTD=
EXTT0=
EXTT1=
EXTT2=
EXTT3=
EXTT4=
EXTT5=
EXTT6=
EXTT7=
EXTT8=
EXTT9=
EXTT10=
EXTT11=
EXTT12=
PLAYORDER=
